<svg width="133" height="23" viewBox="0 0 133 23" fill="none" xmlns="http://www.w3.org/2000/svg">
<path d="M132.061 12.5607C132.646 11.9749 132.646 11.0251 132.061 10.4393L122.515 0.893398C121.929 0.307611 120.979 0.307611 120.393 0.893398C119.808 1.47919 119.808 2.42893 120.393 3.01472L128.879 11.5L120.393 19.9853C119.808 20.5711 119.808 21.5208 120.393 22.1066C120.979 22.6924 121.929 22.6924 122.515 22.1066L132.061 12.5607ZM0 13H2.97727V10H0V13ZM8.93182 13H14.8864V10H8.93182V13ZM20.8409 13H26.7955V10H20.8409V13ZM32.75 13H38.7045V10H32.75V13ZM44.6591 13H50.6136V10H44.6591V13ZM56.5682 13H62.5227V10H56.5682V13ZM68.4773 13H74.4318V10H68.4773V13ZM80.3864 13H86.3409V10H80.3864V13ZM92.2954 13H98.25V10H92.2954V13ZM104.205 13H110.159V10H104.205V13ZM116.114 13H122.068V10H116.114V13ZM128.023 13H131V10H128.023V13Z" fill="#10FCF5"/>
</svg>
