<svg width="16" height="99" viewBox="0 0 16 99" fill="none" xmlns="http://www.w3.org/2000/svg">
<path d="M9 1C9 0.447715 8.55228 2.41411e-08 8 0C7.44772 -2.41411e-08 7 0.447715 7 1L9 1ZM7.29289 98.7071C7.68341 99.0976 8.31658 99.0976 8.7071 98.7071L15.0711 92.3431C15.4616 91.9526 15.4616 91.3195 15.0711 90.9289C14.6805 90.5384 14.0474 90.5384 13.6569 90.9289L8 96.5858L2.34314 90.9289C1.95262 90.5384 1.31945 90.5384 0.928928 90.9289C0.538404 91.3195 0.538404 91.9526 0.928928 92.3431L7.29289 98.7071ZM7 3.02083C7 3.57312 7.44772 4.02083 8 4.02083C8.55228 4.02083 9 3.57312 9 3.02083L7 3.02083ZM9 7.0625C9 6.51022 8.55228 6.0625 8 6.0625C7.44772 6.0625 7 6.51022 7 7.0625L9 7.0625ZM7 11.1042C7 11.6565 7.44771 12.1042 8 12.1042C8.55228 12.1042 9 11.6565 9 11.1042L7 11.1042ZM9 15.1458C9 14.5935 8.55228 14.1458 8 14.1458C7.44771 14.1458 7 14.5935 7 15.1458L9 15.1458ZM7 19.1875C7 19.7398 7.44771 20.1875 8 20.1875C8.55228 20.1875 9 19.7398 9 19.1875L7 19.1875ZM9 23.2292C9 22.6769 8.55228 22.2292 8 22.2292C7.44771 22.2292 7 22.6769 7 23.2292L9 23.2292ZM7 27.2708C7 27.8231 7.44771 28.2708 8 28.2708C8.55228 28.2708 9 27.8231 9 27.2708L7 27.2708ZM9 31.3125C9 30.7602 8.55228 30.3125 8 30.3125C7.44771 30.3125 7 30.7602 7 31.3125L9 31.3125ZM7 35.3542C7 35.9064 7.44771 36.3542 8 36.3542C8.55228 36.3542 9 35.9064 9 35.3542L7 35.3542ZM9 39.3958C9 38.8435 8.55228 38.3958 8 38.3958C7.44771 38.3958 7 38.8435 7 39.3958L9 39.3958ZM7 43.4375C7 43.9898 7.44771 44.4375 8 44.4375C8.55228 44.4375 9 43.9898 9 43.4375L7 43.4375ZM9 47.4792C9 46.9269 8.55228 46.4792 8 46.4792C7.44771 46.4792 7 46.9269 7 47.4792L9 47.4792ZM7 51.5208C7 52.0731 7.44771 52.5208 8 52.5208C8.55228 52.5208 9 52.0731 9 51.5208L7 51.5208ZM9 55.5625C9 55.0102 8.55228 54.5625 8 54.5625C7.44771 54.5625 7 55.0102 7 55.5625L9 55.5625ZM7 59.6042C7 60.1565 7.44771 60.6042 8 60.6042C8.55228 60.6042 9 60.1565 9 59.6042L7 59.6042ZM9 63.6458C9 63.0936 8.55228 62.6458 8 62.6458C7.44771 62.6458 7 63.0936 7 63.6458L9 63.6458ZM7 67.6875C7 68.2398 7.44771 68.6875 8 68.6875C8.55228 68.6875 9 68.2398 9 67.6875L7 67.6875ZM9 71.7292C9 71.1769 8.55228 70.7292 8 70.7292C7.44771 70.7292 7 71.1769 7 71.7292L9 71.7292ZM7 75.7708C7 76.3231 7.44771 76.7708 8 76.7708C8.55228 76.7708 9 76.3231 9 75.7708L7 75.7708ZM9 79.8125C9 79.2602 8.55228 78.8125 8 78.8125C7.44771 78.8125 7 79.2602 7 79.8125L9 79.8125ZM7 83.8542C7 84.4064 7.44771 84.8542 8 84.8542C8.55228 84.8542 9 84.4064 9 83.8542L7 83.8542ZM9 87.8958C9 87.3435 8.55228 86.8958 8 86.8958C7.44771 86.8958 7 87.3435 7 87.8958L9 87.8958ZM7 91.9375C7 92.4898 7.44771 92.9375 8 92.9375C8.55228 92.9375 9 92.4898 9 91.9375L7 91.9375ZM9 95.9792C9 95.4269 8.55228 94.9792 8 94.9792C7.44771 94.9792 7 95.4269 7 95.9792L9 95.9792ZM7 1L7 3.02083L9 3.02083L9 1L7 1ZM7 7.0625L7 11.1042L9 11.1042L9 7.0625L7 7.0625ZM7 15.1458L7 19.1875L9 19.1875L9 15.1458L7 15.1458ZM7 23.2292L7 27.2708L9 27.2708L9 23.2292L7 23.2292ZM7 31.3125L7 35.3542L9 35.3542L9 31.3125L7 31.3125ZM7 39.3958L7 43.4375L9 43.4375L9 39.3958L7 39.3958ZM7 47.4792L7 51.5208L9 51.5208L9 47.4792L7 47.4792ZM7 55.5625L7 59.6042L9 59.6042L9 55.5625L7 55.5625ZM7 63.6458L7 67.6875L9 67.6875L9 63.6458L7 63.6458ZM7 71.7292L7 75.7708L9 75.7708L9 71.7292L7 71.7292ZM7 79.8125L7 83.8542L9 83.8542L9 79.8125L7 79.8125ZM7 87.8958L7 91.9375L9 91.9375L9 87.8958L7 87.8958ZM7 95.9792L7 98L9 98L9 95.9792L7 95.9792Z" fill="#10FCF5"/>
</svg>
